<svg xmlns="http://www.w3.org/2000/svg" xmlns:xlink="http://www.w3.org/1999/xlink" width="3566px" height="1547px" viewBox="0 0 3566.4546393813507 1547.031052779712">
    <g id="58383762-49bf-4286-9afb-0246d5b84113">
<g style="">
		<g id="58383762-49bf-4286-9afb-0246d5b84113-child-0">
<path style="stroke: rgb(193,193,193); stroke-opacity: 1.00; stroke-width: 0; stroke-dasharray: none; stroke-linecap: butt; stroke-dashoffset: 0; stroke-linejoin: miter; stroke-miterlimit: 4; fill: rgb(29,29,29); fill-opacity: 1.00; fill-rule: nonzero; opacity: 1;" transform="matrix(5.108912 0 0 5.108912 1783.22732 773.515526) matrix(1 0 0 1 -306.483467 -78.676304)  translate(-36.340986, -68.031166)" d="M 41.82 137.25 L 0.38 140.76 C 11.19 90.00 -6.22 -4.70 -6.22 -4.70 C 9.54 -2.39 78.21 2.41 78.21 2.41 C 76.82 17.17 78.90 42.02 78.90 42.02 C 58.04 40.79 33.00 41.03 33.00 41.03 C 33.10 47.00 33.38 52.57 33.48 57.95 L 64.70 55.61 L 65.21 84.67 L 35.03 83.60 C 37.68 120.19 41.82 137.25 41.82 137.25 z" stroke-linecap="round"></path>
</g>
		<g id="58383762-49bf-4286-9afb-0246d5b84113-child-1">
<path style="stroke: rgb(193,193,193); stroke-opacity: 1.00; stroke-width: 0; stroke-dasharray: none; stroke-linecap: butt; stroke-dashoffset: 0; stroke-linejoin: miter; stroke-miterlimit: 4; fill: rgb(29,29,29); fill-opacity: 1.00; fill-rule: nonzero; opacity: 1;" transform="matrix(5.108912 0 0 5.108912 1783.22732 773.515526) matrix(1 0 0 1 -217.744452 -76.102471)  translate(-125.08, -70.605)" d="M 85.09 136.41 C 101.36 84.15 84.78 3.80 84.78 3.80 C 100.54 6.11 162.99 2.43 162.99 2.43 C 161.60 17.19 163.68 42.04 163.68 42.04 C 142.82 40.81 117.78 41.05 117.78 41.05 C 118.25 47.02 118.72 52.78 118.99 58.15 L 152.40 55.58 L 152.91 84.64 L 119.81 83.62 C 119.99 94.17 119.56 100.75 119.56 100.75 L 164.70 99.96 L 165.38 138.78 C 136.59 133.51 85.09 136.40 85.09 136.40 Z" stroke-linecap="round"></path>
</g>
		<g id="58383762-49bf-4286-9afb-0246d5b84113-child-2">
<path style="stroke: rgb(193,193,193); stroke-opacity: 1.00; stroke-width: 0; stroke-dasharray: none; stroke-linecap: butt; stroke-dashoffset: 0; stroke-linejoin: miter; stroke-miterlimit: 4; fill: rgb(29,29,29); fill-opacity: 1.00; fill-rule: nonzero; opacity: 1;" transform="matrix(5.108912 0 0 5.108912 1783.22732 773.515526) matrix(1 0 0 1 -126.374452 -75.880157)  translate(-216.45, -70.827314)" d="M 174.16 140.82 C 181.40 73.99 171.80 6.05 171.80 6.05 C 193.83 0.89 256.12 -12.15 257.05 41.40 C 257.41 61.70 248.11 74.01 235.45 81.60 C 242.03 91.84 253.10 108.57 261.10 116.20 L 234.84 140.55 C 234.84 140.55 218.82 123.31 210.03 91.20 C 209.30 91.21 208.75 91.42 208.21 91.63 C 208.85 107.15 210.23 123.65 212.53 140.14 L 193.34 140.47 L 174.15 140.80 Z M 208.17 36.48 C 207.80 46.64 207.46 58.79 207.69 71.93 C 216.79 69.58 227.65 63.42 227.44 51.47 C 227.24 40.32 217.32 37.11 208.17 36.47 Z" stroke-linecap="round"></path>
</g>
		<g id="58383762-49bf-4286-9afb-0246d5b84113-child-3">
<path style="stroke: rgb(193,193,193); stroke-opacity: 1.00; stroke-width: 0; stroke-dasharray: none; stroke-linecap: butt; stroke-dashoffset: 0; stroke-linejoin: miter; stroke-miterlimit: 4; fill: rgb(29,29,29); fill-opacity: 1.00; fill-rule: nonzero; opacity: 1;" transform="matrix(5.108912 0 0 5.108912 1783.22732 773.515526) matrix(1 0 0 1 -9.724452 -73.342471)  translate(-333.1, -73.365)" d="M 284.90 140.52 L 265.85 138.26 C 280.25 72.89 278.35 6.22 278.35 6.22 L 316.52 4.16 C 316.52 4.16 325.36 60.36 330.45 79.39 C 330.45 79.39 339.58 36.82 345.25 5.85 L 383.28 6.58 C 383.55 74.08 400.35 135.91 400.35 135.91 L 362.43 141.55 C 362.43 141.55 362.25 110.09 356.97 69.56 C 351.13 90.97 344.81 116.17 343.72 127.14 C 343.72 127.14 328.88 125.21 318.68 127.58 C 318.68 127.58 312.29 96.63 306.77 73.82 C 304.58 94.77 303.35 118.68 304.13 142.57 L 284.90 140.52 Z" stroke-linecap="round"></path>
</g>
		<g id="58383762-49bf-4286-9afb-0246d5b84113-child-4">
<path style="stroke: rgb(193,193,193); stroke-opacity: 1.00; stroke-width: 0; stroke-dasharray: none; stroke-linecap: butt; stroke-dashoffset: 0; stroke-linejoin: miter; stroke-miterlimit: 4; fill: rgb(29,29,29); fill-opacity: 1.00; fill-rule: nonzero; opacity: 1;" transform="matrix(5.108912 0 0 5.108912 1783.22732 773.515526) matrix(1 0 0 1 102.415548 -76.102471)  translate(-445.24, -70.605)" d="M 405.25 136.41 C 421.52 84.15 404.94 3.80 404.94 3.80 C 420.70 6.11 483.15 2.43 483.15 2.43 C 481.76 17.19 483.84 42.04 483.84 42.04 C 462.98 40.81 437.94 41.05 437.94 41.05 C 438.41 47.02 438.88 52.78 439.15 58.15 L 472.56 55.58 L 473.07 84.64 L 439.97 83.62 C 440.15 94.17 439.72 100.75 439.72 100.75 L 484.86 99.96 L 485.54 138.78 C 456.75 133.51 405.25 136.40 405.25 136.40 Z" stroke-linecap="round"></path>
</g>
		<g id="58383762-49bf-4286-9afb-0246d5b84113-child-5">
<path style="stroke: rgb(193,193,193); stroke-opacity: 1.00; stroke-width: 0; stroke-dasharray: none; stroke-linecap: butt; stroke-dashoffset: 0; stroke-linejoin: miter; stroke-miterlimit: 4; fill: rgb(29,29,29); fill-opacity: 1.00; fill-rule: nonzero; opacity: 1;" transform="matrix(5.108912 0 0 5.108912 1783.22732 773.515526) matrix(1 0 0 1 197.715548 -75.207471)  translate(-540.54, -71.5)" d="M 494.13 140.91 C 501.41 76.47 491.86 11.12 491.86 11.12 L 530.24 10.45 C 530.24 10.45 541.32 48.29 553.39 79.94 C 553.37 36.73 548.57 2.76 548.57 2.76 L 586.95 2.09 C 586.95 2.09 579.69 67.73 589.22 131.88 L 550.84 132.55 C 550.84 132.55 540.17 97.29 527.62 69.63 C 527.81 90.73 528.97 115.60 532.51 140.23 L 513.32 140.56 L 494.13 140.89 Z" stroke-linecap="round"></path>
</g>
		<g id="58383762-49bf-4286-9afb-0246d5b84113-child-6">
<path style="stroke: rgb(193,193,193); stroke-opacity: 1.00; stroke-width: 0; stroke-dasharray: none; stroke-linecap: butt; stroke-dashoffset: 0; stroke-linejoin: miter; stroke-miterlimit: 4; fill: rgb(29,29,29); fill-opacity: 1.00; fill-rule: nonzero; opacity: 1;" transform="matrix(5.108912 0 0 5.108912 1783.22732 773.515526) matrix(1 0 0 1 299.554014 -79.186304)  translate(-642.378467, -67.521166)" d="M 623.63 42.80 C 613.39 42.78 602.97 42.36 592.89 41.15 L 596.22 1.47 C 643.45 5.62 691.87 -4.70 691.87 -4.70 L 684.62 39.55 C 684.62 39.55 671.67 41.17 653.59 42.08 C 654.04 67.96 655.59 104.17 659.68 139.74 L 614.92 138.78 C 617.23 103.69 623.89 69.08 623.62 42.80 z" stroke-linecap="round"></path>
</g>
		<g id="58383762-49bf-4286-9afb-0246d5b84113-child-7">
<path style="stroke: rgb(193,193,193); stroke-opacity: 1.00; stroke-width: 0; stroke-dasharray: none; stroke-linecap: butt; stroke-dashoffset: 0; stroke-linejoin: miter; stroke-miterlimit: 4; fill: rgb(29,29,29); fill-opacity: 1.00; fill-rule: nonzero; opacity: 1;" transform="matrix(5.108912 0 0 5.108912 1783.22732 773.515526) matrix(1 0 0 1 -112.014452 81.12956)  translate(-228.075, -244.542828)" d="M 308.27 268.39 C 295.09 276.18 279.81 280.86 264.24 279.12 C 248.86 277.40 234.47 269.74 223.34 259.60 C 222.47 258.81 212.45 249.13 212.84 248.79 C 221.25 241.56 226.85 231.29 226.85 215.89 C 226.85 164.92 166.83 175.11 145.78 175.11 C 145.78 175.11 153.83 245.75 145.78 309.46 L 182.55 309.46 C 180.62 293.67 179.57 277.89 179.22 263.05 C 181.32 262.67 183.25 262.10 185.35 261.72 C 242.43 345.97 310.37 304.70 310.37 304.70 L 308.27 268.37 Z M 179.05 244.39 C 179.05 231.84 179.58 220.24 180.10 210.73 C 188.85 211.30 198.49 214.53 198.49 225.18 C 198.31 236.59 187.81 242.30 179.05 244.39 Z" stroke-linecap="round"></path>
</g>
		<g id="58383762-49bf-4286-9afb-0246d5b84113-child-8">
<path style="stroke: rgb(193,193,193); stroke-opacity: 1.00; stroke-width: 0; stroke-dasharray: none; stroke-linecap: butt; stroke-dashoffset: 0; stroke-linejoin: miter; stroke-miterlimit: 4; fill: rgb(29,29,29); fill-opacity: 1.00; fill-rule: nonzero; opacity: 1;" transform="matrix(5.108912 0 0 5.108912 1783.22732 773.515526) matrix(0.936587 0 0 0.936587 -69.141758 55.371534)  translate(-269.725, -220.355)" d="M 308.08 264.22 C 294.60 262.83 282.83 262.99 269.71 263.04 C 265.34 263.06 228.05 264.22 232.07 263.60 C 232.27 254.61 232.96 244.17 233.30 235.14 C 233.63 226.26 233.85 217.42 233.58 208.53 C 233.26 197.84 232.61 187.12 231.35 176.49 C 246.77 179.07 308.09 176.49 308.09 176.49 C 306.48 190.10 308.09 205.55 308.09 205.55 C 287.65 204.26 263.09 203.89 263.09 203.89 L 263.27 209.78 L 296.44 208.31 L 296.44 229.83 L 263.63 228.54 L 263.81 235.53 L 308.10 235.53 L 308.10 264.22 Z" stroke-linecap="round"></path>
</g>
		<g id="58383762-49bf-4286-9afb-0246d5b84113-child-9">
<path style="stroke: rgb(193,193,193); stroke-opacity: 1.00; stroke-width: 0; stroke-dasharray: none; stroke-linecap: butt; stroke-dashoffset: 0; stroke-linejoin: miter; stroke-miterlimit: 4; fill: rgb(29,29,29); fill-opacity: 1.00; fill-rule: nonzero; opacity: 1;" transform="matrix(5.108912 0 0 5.108912 1783.22732 773.515526) matrix(1 0 0 1 -249.993279 80.881732)  translate(-90.096173, -244.295)" d="M 96.79 309.96 L 55.36 313.47 C 66.17 262.70 46.31 176.49 46.31 176.49 C 62.07 178.80 133.19 175.12 133.19 175.12 C 131.80 189.88 133.88 214.73 133.88 214.73 C 113.02 213.50 87.98 213.74 87.98 213.74 C 88.08 219.71 88.36 225.28 88.46 230.66 L 119.68 228.32 L 120.19 257.38 L 90.01 256.31 C 92.66 292.90 96.80 309.96 96.80 309.96 z" stroke-linecap="round"></path>
</g>
		<g id="58383762-49bf-4286-9afb-0246d5b84113-child-10">
<path style="stroke: rgb(193,193,193); stroke-opacity: 1.00; stroke-width: 0; stroke-dasharray: none; stroke-linecap: butt; stroke-dashoffset: 0; stroke-linejoin: miter; stroke-miterlimit: 4; fill: rgb(29,29,29); fill-opacity: 1.00; fill-rule: nonzero; opacity: 1;" transform="matrix(5.108912 0 0 5.108912 1783.22732 773.515526) matrix(1 0 0 1 28.879706 81.055935)  translate(-368.969159, -244.469203)" d="M 328.67 174.12 L 363.53 181.28 C 363.53 181.28 353.37 280.03 368.91 279.75 C 385.72 279.46 374.28 179.10 374.28 179.10 L 402.01 176.03 C 419.74 217.94 432.02 313.70 368.24 314.81 C 305.93 315.90 321.82 210.68 328.67 174.12 Z" stroke-linecap="round"></path>
</g>
		<g id="58383762-49bf-4286-9afb-0246d5b84113-child-11">
<path style="stroke: rgb(193,193,193); stroke-opacity: 1.00; stroke-width: 0; stroke-dasharray: none; stroke-linecap: butt; stroke-dashoffset: 0; stroke-linejoin: miter; stroke-miterlimit: 4; fill: rgb(29,29,29); fill-opacity: 1.00; fill-rule: nonzero; opacity: 1;" transform="matrix(5.108912 0 0 5.108912 1783.22732 773.515526) matrix(1 0 0 1 130.728252 81.257368)  translate(-470.817704, -244.670635)" d="M 425.40 314.00 C 433.47 252.73 423.04 179.23 423.04 179.23 C 483.43 162.25 517.80 193.71 518.58 238.50 C 519.63 298.62 466.80 319.25 425.39 314.00 Z M 461.38 217.79 C 460.24 246.68 461.88 277.52 461.88 277.52 C 461.88 277.52 486.53 275.70 485.93 241.66 C 485.49 216.58 469.04 216.47 461.38 217.79 Z" stroke-linecap="round"></path>
</g>
		<g id="58383762-49bf-4286-9afb-0246d5b84113-child-12">
<path style="stroke: rgb(193,193,193); stroke-opacity: 1.00; stroke-width: 0; stroke-dasharray: none; stroke-linecap: butt; stroke-dashoffset: 0; stroke-linejoin: miter; stroke-miterlimit: 4; fill: rgb(29,29,29); fill-opacity: 1.00; fill-rule: nonzero; opacity: 1;" transform="matrix(5.108912 0 0 5.108912 1783.22732 773.515526) matrix(1 0 0 1 228.576217 79.391732)  translate(-568.665669, -242.805)" d="M 525.46 309.12 C 541.73 256.86 525.15 176.51 525.15 176.51 C 540.91 178.82 612.18 174.12 612.18 174.12 C 606.93 189.17 604.05 214.75 604.05 214.75 C 583.19 213.52 558.15 213.76 558.15 213.76 C 558.62 219.73 559.09 225.49 559.36 230.86 L 592.77 228.29 L 593.28 257.35 L 560.18 256.33 C 560.36 266.88 559.93 273.46 559.93 273.46 L 605.07 272.67 L 605.75 311.49 C 576.96 306.22 525.46 309.11 525.46 309.11 z" stroke-linecap="round"></path>
</g>
</g>
</g>

  </svg>