<svg width="182" height="165" viewBox="0 0 182 165" fill="none" xmlns="http://www.w3.org/2000/svg">
<path d="M4.301 165C1.92562 165 0 163.074 0 160.699V4.30101C0 1.92563 1.92563 0 4.30101 0H176.772C179.147 0 181.073 1.92563 181.073 4.30101V160.699C181.073 163.074 179.147 165 176.772 165H4.301Z" fill="#333333"/>
<path d="M39.1562 34.6406H141.905V134.116H39.1562V34.6406ZM52.376 117.126L51.8072 119.837L55.8071 119.512C57.9997 119.336 62.9995 118.948 66.9077 118.649C70.7424 118.367 72.7057 118.288 73.5405 117.32C74.4029 116.316 74.0542 114.362 73.3203 110.251C73.2745 109.978 73.2286 109.696 73.1735 109.406C72.7057 106.782 72.1185 101.527 71.8617 97.7415L71.3938 90.8575L87.7786 92.0899V76.6316L79.522 77.151C72.2011 77.6 71.2562 77.4943 71.1644 76.1826C71.1002 75.364 70.9259 73.6033 70.7608 72.2741L70.458 69.8532H95.1178V50.0461H52.7705L53.2659 53.1272C53.5411 54.8174 54.0549 65.522 54.3943 76.8957C54.9631 95.9809 54.3943 107.451 52.376 117.126ZM85.9438 98.8595V119.151H128.273L127.539 111.888C126.346 99.9951 126.869 67.7404 128.392 58.8493C129.144 54.4917 129.493 50.7064 129.181 50.4335C128.447 49.8172 109.191 50.768 108.475 51.4634C108.172 51.7451 108.503 57.6872 109.191 64.6593C109.879 71.6314 110.292 77.6088 110.099 77.9521C109.906 78.2866 106.246 78.3306 101.971 78.0401L94.2004 77.5119V92.6269L110.714 91.5969V100.048L85.9438 98.8595Z" fill="#E5B765"/>
<path d="M52.3735 117.125C54.3918 107.45 54.9606 95.9797 54.3918 76.8945C54.0523 65.5208 53.5386 54.8162 53.2634 53.126L52.768 50.0449H73.9416H95.1153V59.9485V69.852H82.7854H70.4555L70.7582 72.2729C70.9234 73.6021 71.0977 75.3628 71.1619 76.1814C71.2536 77.4931 72.1985 77.5988 79.5194 77.1498L87.776 76.6304V84.3596V92.0887L79.5836 91.4725L71.3912 90.8563L71.8591 97.7403C72.116 101.526 72.7031 106.781 73.171 109.404C74.7489 118.366 74.9691 118.049 66.9051 118.648C62.997 118.947 57.9972 119.334 55.8046 119.511L51.8047 119.836L52.3735 117.125ZM85.9412 109V98.8583L98.3262 99.4569L110.711 100.047V95.8213V91.5957L102.454 92.1151L94.1979 92.6257V85.0726V77.5107L101.968 78.0389C106.243 78.3294 109.904 78.2854 110.096 77.9509C110.289 77.6076 109.876 71.6302 109.188 64.6581C108.5 57.686 108.17 51.7439 108.473 51.4622C109.188 50.7668 128.444 49.816 129.178 50.4323C129.49 50.7052 129.142 54.4905 128.389 58.8481C126.867 67.7392 126.344 99.9939 127.536 111.887L128.27 119.15H107.106H85.9412V109Z" fill="#333333"/>
</svg>
