<svg width="130" height="125" viewBox="0 0 130 125" fill="none" xmlns="http://www.w3.org/2000/svg">
<path d="M18 124.216C8.05886 124.216 0 116.157 0 106.216V18C0 8.05886 8.05887 0 18 0H111.029C120.97 0 129.029 8.05887 129.029 18V106.216C129.029 116.157 120.97 124.216 111.029 124.216H18Z" fill="#FAF2E0"/>
<path d="M27.9062 24.6631H101.124V99.5508H27.9062V24.6631ZM37.3264 86.7602L36.9211 88.8014L39.7714 88.5562C41.3338 88.4237 44.8966 88.1321 47.6815 87.9067C50.414 87.6947 51.813 87.635 52.4079 86.906C53.0224 86.1505 52.774 84.6793 52.251 81.5844C52.2183 81.3789 52.1856 81.1668 52.1464 80.9482C51.813 78.9732 51.3946 75.0168 51.2116 72.1671L50.8782 66.9846L62.5537 67.9124V56.275L56.6702 56.666C51.4535 57.004 50.7801 56.9244 50.7147 55.937C50.669 55.3207 50.5448 53.9952 50.4271 52.9945L50.2114 51.172H67.7835V36.2607H37.6075L37.9606 38.5803C38.1567 39.8527 38.5228 47.9114 38.7646 56.4738C39.1699 70.8416 38.7646 79.4769 37.3264 86.7602ZM61.2463 73.0087V88.2845H91.4092L90.8862 82.817C90.0364 73.8636 90.409 49.5815 91.4942 42.888C92.0302 39.6075 92.2786 36.7578 92.0564 36.5523C91.5334 36.0884 77.8117 36.8042 77.3018 37.3277C77.086 37.5398 77.3214 42.0132 77.8117 47.2619C78.302 52.5107 78.5962 57.0106 78.4589 57.2691C78.3216 57.5209 75.7132 57.554 72.6669 57.3353L67.1298 56.9377V68.3167L78.8969 67.5413V73.9034L61.2463 73.0087Z" fill="#0D0A06"/>
<path d="M37.3272 86.7593C38.7654 79.4759 39.1707 70.8406 38.7654 56.4728C38.5235 47.9104 38.1574 39.8517 37.9613 38.5793L37.6083 36.2598H52.6963H67.7843V43.7154V51.171H58.9982H50.2121L50.4279 52.9935C50.5455 53.9942 50.6697 55.3197 50.7155 55.936C50.7809 56.9235 51.4542 57.003 56.6709 56.665L62.5545 56.274V62.0927V67.9114L56.7167 67.4475L50.8789 66.9836L51.2123 72.1661C51.3954 75.0158 51.8138 78.9723 52.1472 80.9472C53.2716 87.6937 53.4285 87.4551 47.6822 87.9058C44.8973 88.1311 41.3345 88.4227 39.7721 88.5552L36.9219 88.8004L37.3272 86.7593ZM61.247 80.6423V73.0078L70.0723 73.4584L78.8976 73.9024V70.7214V67.5403L73.0141 67.9313L67.1306 68.3157V62.6295V56.9367L72.6676 57.3344C75.714 57.5531 78.3223 57.5199 78.4596 57.2681C78.5969 57.0096 78.3027 52.5097 77.8124 47.261C77.3221 42.0122 77.0868 37.5388 77.3025 37.3267C77.8124 36.8032 91.5341 36.0875 92.0571 36.5514C92.2794 36.7568 92.031 39.6065 91.4949 42.887C90.4097 49.5805 90.0371 73.8627 90.887 82.8161L91.4099 88.2835H76.3285H61.247V80.6423Z" fill="#FAF2E0"/>
</svg>
