<svg width="240" height="200" viewBox="0 0 240 200" fill="none" xmlns="http://www.w3.org/2000/svg">
<path d="M0.0275225 197.591C3.4904 181.592 5.63893 164.396 6.80861 143.269C8.51696 112.385 7.74435 73.0589 4.64162 33.1166C4.14296 26.709 3.04407 14.4382 2.74242 11.8924L2.61622 10.8179L3.49964 10.9729C5.02638 11.2362 8.90172 11.6003 13.6636 11.9213C16.9356 12.1448 25.2958 12.2314 42.681 12.2278C66.1516 12.2206 68.1493 13.0968 91.7276 12.2602C93.7284 12.1881 94.9596 13.342 94.9596 13.342C93.399 17.2219 96.6526 20.2004 96.6526 24.8808C96.6526 35.8354 100.793 43.6818 107.838 48.319C107.912 50.8575 107.722 54.3733 107.838 56.919C107.995 60.4167 108.137 63.6656 108.156 64.1344L108.189 64.989L107.198 64.9277C86.5779 63.5971 63.5229 62.6776 50.7364 62.674L46.27 62.6704L46.3716 68.4686C46.664 85.2612 46.6763 85.629 46.9226 85.629C47.609 85.629 85.399 83.4258 86.9689 83.2924L88.8157 83.141V123.026L86.8796 122.878C82.8965 122.575 48.2123 120.79 48.1415 120.884C48.0553 121.003 48.674 131.251 49.1727 138.019C50.6779 158.284 52.8141 176.818 55.1504 189.85C55.5659 192.165 55.8707 194.101 55.8245 194.151C55.7814 194.198 43.9861 195.035 29.6144 196.001C15.2396 196.971 2.68086 197.826 1.70202 197.909C0.0121321 198.049 -0.0709772 198.031 0.0275225 197.591Z" fill="#F9F0DC"/>
<path d="M239.974 196.114C236.539 180.287 234.405 163.278 233.245 142.378C231.552 111.829 232.318 72.9278 235.397 33.419C235.889 27.0805 236.979 14.9427 237.28 12.426L237.403 11.3618L236.526 11.5128C235.015 11.7753 231.17 12.1348 226.445 12.4548C223.198 12.6741 214.902 12.7604 197.659 12.7568C174.37 12.7496 167.312 13.4723 143.918 12.6489C143.752 12.6417 143.49 16.424 143.49 15.1656C142.875 18.4014 143.952 20.2422 143.952 24.873C143.952 35.7056 140.006 44.5249 133.015 49.1125C132.942 51.6256 133.129 54.4479 133.015 56.9647C132.858 60.4233 132.717 63.6375 132.701 64.1013L132.668 64.9462L133.649 64.8851C154.107 63.5692 176.98 62.6596 189.665 62.656L194.097 62.6524L193.996 68.3905C193.703 85.0008 193.691 85.3604 193.448 85.3604C192.768 85.3604 155.276 83.1816 153.719 83.0522L151.887 82.9012V122.352L153.811 122.209C157.76 121.91 192.171 120.145 192.238 120.235C192.325 120.353 191.712 130.489 191.216 137.183C189.723 157.23 187.603 175.563 185.285 188.456C184.875 190.746 184.574 192.659 184.617 192.709C184.66 192.759 196.363 193.586 210.621 194.543C224.879 195.499 237.339 196.347 238.312 196.426C239.986 196.567 240.069 196.549 239.974 196.114Z" fill="#F9F0DC"/>
<path d="M104.985 199.372C104.985 199.372 100.196 156.127 104.985 147.477C109.778 138.826 128.942 138.826 133.735 147.477C138.527 156.127 133.735 199.372 133.735 199.372H104.985Z" fill="#F9F0DC"/>
<path d="M97.2344 25.1654C96.2371 23.8349 95.3999 22.3384 94.7504 20.7266C94.2117 19.4393 93.9162 18.0258 93.8854 16.5835C93.8454 14.9933 94.3656 13.4536 95.3137 12.3466C96.2217 11.2504 97.4591 10.6482 98.7427 10.6698C99.2506 10.6806 99.7585 10.7636 100.251 10.915C100.602 9.44742 101.405 8.19979 102.501 7.42813C103.652 6.6096 104.97 6.19132 106.309 6.21656C107.343 6.17329 108.371 6.41488 109.316 6.91971C109.728 6.41488 110.236 6.03627 110.794 5.81991C111.354 5.59274 111.942 5.47014 112.536 5.46654C113.93 5.44851 115.26 6.17689 116.165 7.46059C117.159 8.79116 117.975 10.7528 118.618 13.349C119.258 15.9452 119.769 19.1617 120.148 22.9983H118.837C118.224 19.3708 117.587 16.4284 116.931 14.1675C116.276 11.9066 115.558 10.2443 114.78 9.17698C113.998 8.11325 113.105 7.57958 112.099 7.57958C111.535 7.57237 110.978 7.73103 110.48 8.04113C110.027 8.30076 109.645 8.70822 109.384 9.21665C108.968 8.92457 108.522 8.70101 108.057 8.55677C107.491 8.38369 106.906 8.30076 106.318 8.30797C105.099 8.28273 103.914 8.78034 102.969 9.71065C102.07 10.5472 101.442 11.7336 101.196 13.0677C100.864 12.9487 100.519 12.8658 100.174 12.8225C99.8539 12.7865 99.4999 12.7684 99.1244 12.7684C98.2133 12.7396 97.3298 13.1254 96.6496 13.8502C95.997 14.5281 95.6246 15.5233 95.643 16.5618C95.643 18.7073 96.6126 21.1016 98.5519 23.7447L97.2344 25.1654ZM103.012 25.0573C102.79 23.8493 102.427 22.6882 101.929 21.6064C101.525 20.7014 100.999 19.8864 100.374 19.1905C99.8108 18.5919 99.2691 18.2926 98.7396 18.2926C98.4749 18.2926 98.2564 18.4838 98.0809 18.8588C97.9055 19.2374 97.8193 19.8143 97.8193 20.586C97.8223 21.3432 97.9024 22.0968 98.0594 22.8324L96.3572 23.3156C96.1756 22.4286 96.0801 21.5199 96.074 20.604C96.074 19.3023 96.311 18.2422 96.785 17.4236C97.2159 16.6303 97.9578 16.1616 98.7458 16.1904C99.6415 16.2157 100.506 16.6051 101.199 17.301C102.058 18.1268 102.781 19.14 103.329 20.2939C103.975 21.6281 104.443 23.0776 104.717 24.5849L103.012 25.0573ZM120.197 52.2852C116.608 52.2852 113.342 51.6326 110.4 50.3309C107.586 49.1193 105.007 47.2334 102.815 44.785C100.694 42.3835 99.029 39.4555 97.9332 36.203C96.7943 32.8748 96.2279 29.1968 96.2279 25.1654C96.2279 23.6329 96.2525 22.4935 96.3017 21.7435C96.3141 21.1665 96.4372 20.604 96.665 20.0956C96.8989 20.5355 97.3175 21.2206 97.9239 22.1545C98.6934 23.2868 99.5584 24.3181 100.506 25.2303C101.833 26.5104 103.28 27.5886 104.819 28.4504C106.58 29.4817 108.722 30.3291 111.246 30.9889C113.77 31.6488 116.753 31.9769 120.197 31.9769C123.642 31.9769 126.627 31.6452 129.151 30.9889C131.675 30.3327 133.818 29.4853 135.585 28.4504C137.124 27.5886 138.57 26.5104 139.897 25.2303C140.842 24.3181 141.704 23.2868 142.473 22.1545C143.077 21.2206 143.495 20.5355 143.729 20.0956C143.932 20.449 144.059 20.997 144.102 21.7435C144.148 22.4899 144.169 23.6329 144.169 25.1654C144.169 29.1968 143.6 32.8748 142.458 36.203C141.362 39.4555 139.697 42.3835 137.579 44.785C135.388 47.237 132.808 49.1229 129.992 50.3309C127.052 51.6362 123.786 52.2852 120.197 52.2852ZM120.197 50.2227C123.509 50.2227 126.529 49.6349 129.262 48.4558C131.876 47.3596 134.276 45.6216 136.308 43.3607C138.29 41.1178 139.845 38.3846 140.864 35.3448C141.929 32.2221 142.458 28.7136 142.458 24.8229V24.3721L142.766 25.0356C141.479 26.3518 140.122 27.5525 138.694 28.6379C137.17 29.7846 135.554 30.7437 133.867 31.501C131.922 32.3664 129.909 32.9974 127.859 33.3796C125.325 33.8448 122.761 34.0647 120.197 34.0395C117.636 34.0647 115.078 33.8448 112.548 33.3796C110.492 32.9974 108.476 32.3664 106.527 31.501C104.84 30.7473 103.224 29.7846 101.698 28.6379C100.273 27.5525 98.912 26.3518 97.6284 25.0356L97.9332 24.3721V25.115C97.9332 28.9696 98.4687 32.4457 99.543 35.5432C100.565 38.5541 102.122 41.2585 104.105 43.4653C106.149 45.7009 108.55 47.4065 111.157 48.4846C113.887 49.6457 116.9 50.2263 120.197 50.2227ZM101.458 8.68658C101.427 7.12524 101.747 5.57832 102.378 4.21169C102.96 2.97488 103.803 1.9472 104.819 1.23324C105.81 0.526485 106.94 0.15508 108.091 0.158686C109.504 0.173109 110.88 0.706779 112.031 1.68758L111.055 3.43282C110.193 2.67919 109.156 2.27173 108.091 2.27173C107.214 2.25731 106.352 2.54578 105.607 3.10108C104.865 3.65999 104.259 4.44968 103.855 5.38721C103.415 6.40767 103.194 7.53992 103.209 8.68658H101.458ZM103.822 29.8927C103.366 29.2329 102.975 28.5153 102.652 27.7545C102.316 26.9576 102.064 26.1138 101.898 25.2448L117.088 15.5341C117.913 16.8755 118.553 18.3684 118.981 19.9586C119.317 21.1521 119.505 22.3961 119.542 23.6546L117.725 22.8108C117.725 21.4189 117.316 19.9153 116.497 18.2962L104.028 26.2688C104.563 27.603 105.274 28.8254 106.133 29.8855L103.822 29.8927ZM105.551 20.8095C105.564 18.7398 104.905 16.7493 103.714 15.2637L104.893 13.8394C105.591 14.7733 106.133 15.8623 106.493 17.0414C106.847 18.2349 107.023 19.4898 107.017 20.7555L105.551 20.8095ZM104.677 24.8734C104.794 24.4695 104.902 24.0332 105.004 23.568C105.105 23.0993 105.207 22.5512 105.311 21.9165C105.662 19.9117 106.109 18.4044 106.647 17.402C107.251 16.3274 108.063 15.4512 109.011 14.8418L109.778 16.5654C108.959 17.1279 108.38 17.7878 108.039 18.5378C107.697 19.2915 107.355 20.503 107.017 22.169L106.73 23.5428L104.677 24.8734ZM109.23 28.6523C108.987 28.6343 108.771 28.454 108.673 28.1872C108.513 27.8554 108.433 27.4768 108.442 27.0946C108.433 26.7088 108.513 26.3301 108.673 25.9948C108.774 25.728 108.987 25.5513 109.23 25.5332C109.464 25.5585 109.67 25.7388 109.765 25.9948C109.925 26.3301 110.006 26.7088 109.996 27.0946C110.006 27.4768 109.925 27.8554 109.765 28.1872C109.67 28.4504 109.464 28.6271 109.23 28.6523ZM108.879 7.18293C109.39 4.98335 110.184 3.2345 111.258 1.93999C112.333 0.645479 113.795 2.7321e-05 115.645 2.7321e-05C116.814 -0.00357856 117.969 0.349797 118.994 1.03131C119.769 0.602209 120.613 0.375039 121.468 0.371433C122.709 0.346191 123.912 0.887073 124.839 1.88951C125.759 2.84867 126.406 4.13957 126.677 5.57111L125.799 8.42336C125.451 8.3873 125.187 8.12407 125.002 7.63006C124.808 7.09279 124.682 6.52306 124.62 5.94251C124.519 4.99777 124.146 4.12515 123.568 3.47609C123.001 2.82703 122.247 2.47366 121.468 2.49169C121.056 2.48808 120.647 2.5602 120.253 2.71165C119.785 2.90276 119.332 3.14796 118.907 3.45085C118.418 3.02536 117.882 2.68641 117.316 2.4376C116.78 2.21043 116.214 2.09865 115.645 2.10586C114.355 2.10947 113.302 2.5602 112.486 3.45085C111.668 4.34511 111.027 5.78385 110.566 7.76348L108.879 7.18293ZM112.668 27.1992C112.437 27.3001 112.182 27.246 112 27.0549C111.745 26.835 111.548 26.5393 111.418 26.1967C111.28 25.8397 111.221 25.4395 111.246 25.0464C111.218 24.7508 111.351 24.4695 111.572 24.3433C111.794 24.2171 112.062 24.2784 112.231 24.4911C112.477 24.7147 112.674 25.0104 112.797 25.3493C112.948 25.7063 113.019 26.103 113.004 26.4996C113.016 26.7917 112.884 27.0657 112.668 27.1992ZM113.893 32.4529L112.28 31.6344L113.265 28.7821C114.026 26.5826 114.897 24.9311 115.882 23.8313C116.817 22.7567 118.009 22.068 119.286 21.8589C119.594 20.366 120.139 19.2013 120.921 18.3756C121.668 17.5715 122.635 17.1279 123.635 17.1424C124.436 17.1496 125.224 17.384 125.935 17.8311C126.206 17.4921 126.541 17.2325 126.907 17.0775C127.255 16.9296 127.622 16.8539 127.991 16.8539C128.964 16.8287 129.899 17.2722 130.598 18.0871C130.875 17.9104 131.161 17.7662 131.463 17.6652C131.755 17.557 132.063 17.503 132.371 17.503C133.261 17.5174 134.135 17.777 134.932 18.2602C135.785 18.7506 136.545 19.4465 137.167 20.3047C137.709 20.9934 138.41 21.4694 139.18 21.675C140.054 21.9598 141.295 22.1004 142.901 22.1004L141.695 24.2135C140.916 24.2171 140.14 24.1306 139.374 23.9467C138.687 23.788 138.019 23.514 137.395 23.1317C136.813 22.7675 136.29 22.2843 135.849 21.6966C135.397 21.0583 134.84 20.5391 134.215 20.1677C133.642 19.8143 133.014 19.6232 132.374 19.6124C132.048 19.6196 131.725 19.6701 131.411 19.7566C131.032 19.8612 130.678 20.0523 130.361 20.3264C130.05 19.8828 129.665 19.5222 129.231 19.2698C128.844 19.0571 128.422 18.9489 127.997 18.9525C127.671 18.9453 127.348 19.0282 127.055 19.1977C126.76 19.3816 126.48 19.6016 126.224 19.8576C125.922 19.598 125.568 19.4321 125.202 19.3816C124.802 19.2987 124.399 19.2554 123.999 19.2482C123.164 19.2338 122.367 19.6412 121.798 20.3732C121.191 21.1196 120.85 22.2339 120.773 23.7123C119.966 23.6942 119.166 23.8709 118.412 24.2279C117.664 24.621 117.014 25.2376 116.522 26.0236C115.842 27.1162 115.291 28.3242 114.884 29.6007L113.893 32.4529ZM115.491 24.5633C115.328 24.7832 115.072 24.8698 114.835 24.7868C114.53 24.7219 114.247 24.5488 114.019 24.2928C113.764 24.0368 113.57 23.7051 113.447 23.33C113.345 22.9875 113.361 22.7279 113.493 22.5512C113.665 22.3456 113.915 22.2663 114.149 22.3384C114.453 22.3961 114.74 22.562 114.967 22.8144C115.232 23.0632 115.432 23.3914 115.552 23.7664C115.651 24.026 115.626 24.3253 115.491 24.5597V24.5633ZM122.694 19.2338L120.985 18.7398C121.216 17.7049 121.333 16.6411 121.336 15.5702C121.318 13.2805 120.754 11.0412 119.714 9.1265L117.725 10.7095L115.755 9.77195L120.133 6.16608C122.103 9.05078 123.087 12.2131 123.087 15.6459C123.081 16.8539 122.952 18.0619 122.694 19.2338ZM128.603 31.6957C127.911 31.6488 127.224 31.5082 126.56 31.2738C125.704 30.9961 124.857 30.668 124.029 30.2894C123.161 29.8927 122.355 29.4925 121.613 29.0886C121.013 28.7713 120.428 28.4179 119.862 28.0321L120.779 26.1318C121.321 26.5249 121.881 26.8818 122.453 27.1992C123.146 27.5958 123.897 27.9888 124.704 28.3747C125.504 28.7641 126.267 29.0922 126.991 29.3627C127.569 29.5935 128.169 29.7665 128.776 29.8747L128.603 31.6957ZM144.123 23.7772L142.44 23.2471C142.6 22.4394 142.72 21.7435 142.8 21.1593C142.874 20.6365 142.917 20.1064 142.92 19.5763C142.954 18.6496 142.747 17.7337 142.329 16.9513C141.935 16.2661 141.298 15.7036 140.423 15.2637C139.728 14.9356 139.081 14.4704 138.509 13.8899C138.035 13.3778 137.693 12.5845 137.487 11.5136C137.318 10.4679 136.76 9.57363 135.976 9.08323C135.12 8.5712 134.175 8.30797 133.218 8.31518C133.218 7.68054 133.008 7.06755 132.639 6.61681C132.217 6.08675 131.703 5.67928 131.131 5.42327C130.49 5.12758 129.813 4.97974 129.127 4.98695C128.253 4.98695 127.631 5.25379 127.258 5.78025C126.886 6.30671 126.701 7.18654 126.701 8.41975C126.729 8.8164 126.547 9.19141 126.249 9.36088C125.836 9.552 125.396 9.63854 124.953 9.6169C124.442 9.60608 123.931 9.66738 123.432 9.8008C122.909 9.96307 122.404 10.1722 121.912 10.4354L121.274 8.38369C121.924 8.05916 122.598 7.81757 123.288 7.66973C123.848 7.56516 124.408 7.51467 124.971 7.51107C125.091 6.01463 125.504 4.87157 126.212 4.07827C126.92 3.28498 127.892 2.88833 129.133 2.88833C130.232 2.8667 131.318 3.1768 132.297 3.7862C133.193 4.35232 133.929 5.23215 134.403 6.31392C135.569 6.46176 136.665 7.04231 137.545 7.97262C138.373 8.80558 138.967 9.9234 139.241 11.1782C139.315 11.6686 139.515 12.1158 139.811 12.4619C140.205 12.8189 140.639 13.1074 141.101 13.3165C143.48 14.5101 144.671 16.5943 144.671 19.5727C144.668 20.2182 144.619 20.8636 144.53 21.5019C144.434 22.1834 144.299 22.937 144.123 23.7664V23.7772ZM124.728 30.0262C124.457 29.2112 124.325 28.3422 124.34 27.4624C124.34 26.4708 124.466 25.4792 124.713 24.5308L126.4 25.1907C126.31 25.5981 126.239 25.9876 126.178 26.3662C126.123 26.7196 126.095 27.0766 126.092 27.4371C126.092 27.74 126.116 28.0465 126.169 28.3494C126.218 28.6271 126.295 28.8975 126.4 29.1535L124.728 30.0262ZM139.285 22.4178C139.848 22.1185 140.34 21.6569 140.716 21.0728C141.144 20.3336 141.51 19.5439 141.809 18.7217L129.413 10.7491C128.982 11.7768 128.665 12.8694 128.471 13.9944C128.256 15.307 128.154 16.6448 128.166 17.9825H126.415C126.396 16.1544 126.584 14.3298 126.96 12.5593C127.338 10.9006 127.96 9.33925 128.8 7.95099L143.926 17.6941C143.606 19.4033 142.944 20.9898 141.999 22.3168L139.285 22.4178ZM128.733 32.5827L126.997 32.2185C127.243 30.5238 127.689 28.8831 128.323 27.3434C128.84 26.0489 129.573 24.895 130.472 23.9503C131.291 23.1281 132.143 22.7171 133.033 22.7171C133.916 22.6738 134.75 23.2038 135.221 24.1017C135.732 25.0284 135.988 26.222 135.988 27.6823C135.985 28.0934 135.966 28.5045 135.923 28.9156C135.88 29.3555 135.822 29.8242 135.748 30.3146L134.039 29.8639C134.159 29.1427 134.227 28.4107 134.246 27.6751C134.246 26.7412 134.135 26.0345 133.916 25.5477C133.698 25.0609 133.405 24.8229 133.039 24.8229C132.485 24.8229 131.919 25.1618 131.343 25.8397C130.687 26.6402 130.152 27.5778 129.764 28.6018C129.275 29.8675 128.927 31.2053 128.733 32.5827ZM130.42 16.9008C130.269 16.6772 130.241 16.3671 130.346 16.1075C130.453 15.7433 130.647 15.4224 130.903 15.1844C131.149 14.9211 131.454 14.7409 131.777 14.6687C132.085 14.6074 132.294 14.6687 132.414 14.8671C132.547 15.1087 132.571 15.4152 132.479 15.6856C132.374 16.0498 132.183 16.3707 131.931 16.6087C131.694 16.8719 131.395 17.0414 131.075 17.1027C130.844 17.1676 130.601 17.0883 130.42 16.9008ZM134.492 18.509L133.061 17.7193C133.199 17.3623 133.411 17.0594 133.673 16.8323C133.861 16.6411 134.126 16.5943 134.353 16.7133C134.55 16.8647 134.67 17.1243 134.67 17.402C134.704 17.7842 134.643 18.17 134.492 18.509ZM143.486 16.2661L141.864 15.4764C142.172 14.6327 142.344 13.7276 142.369 12.8081C142.381 11.7696 142.153 10.7528 141.716 9.8621C141.279 8.99669 140.664 8.27551 139.931 7.7779C139.161 7.25145 138.287 6.98461 137.404 6.99903C136.527 6.98461 135.68 7.35962 135.018 8.05195L133.901 6.41128C134.88 5.40884 136.12 4.86796 137.404 4.87878C139.783 4.83911 141.999 6.32834 143.228 8.78755C143.828 9.99912 144.139 11.3874 144.123 12.8009C144.12 13.3778 144.065 13.9476 143.96 14.5065C143.846 15.1087 143.689 15.7 143.489 16.2733L143.486 16.2661ZM136.659 20.9934C136.422 20.9682 136.216 20.7915 136.123 20.5319C135.816 19.8504 135.816 19.0246 136.123 18.3395C136.216 18.0799 136.422 17.8996 136.659 17.878C136.902 17.8924 137.118 18.0727 137.219 18.3395C137.527 19.0246 137.527 19.8504 137.219 20.5319C137.118 20.7987 136.902 20.9754 136.659 20.9934Z" fill="#F9F0DC"/>
</svg>
