<svg width="233" height="187" viewBox="0 0 233 187" fill="none" xmlns="http://www.w3.org/2000/svg">
<path d="M108.97 181.114C108.97 181.114 104.538 146.957 108.97 140.124C113.404 133.292 131.136 133.292 135.571 140.124C140.005 146.957 135.571 181.114 135.571 181.114H108.97Z" fill="#F9F0DC"/>
<path d="M0.0272199 185.913C3.45203 169.988 5.57693 152.871 6.73376 131.841C8.42333 101.099 7.65922 61.9544 4.59059 22.196C4.09742 15.8179 3.01061 3.60363 2.71227 1.0696L2.58746 0L3.46116 0.154339C4.97112 0.416355 8.80386 0.778872 13.5134 1.09832C16.7494 1.32085 25.0177 1.40699 42.2117 1.4034C65.4243 1.39623 73.2299 1.25624 96.549 0.423534C96.7134 0.416355 96.8778 0.412766 97.0422 0.405588C95.4987 4.26764 94.6281 8.66091 94.6281 13.3198C94.6281 24.224 99.4015 33.6709 106.37 38.2832C106.446 40.81 106.537 43.3548 106.653 45.8888C106.808 49.3704 106.948 52.6043 106.967 53.0709L107 53.9216L106.02 53.8606C85.6261 52.5361 62.8245 51.6209 50.1786 51.6173L45.7614 51.6137L45.8618 57.3888C46.151 74.1005 46.1632 74.4666 46.4067 74.4666C47.0856 74.4666 84.4602 72.2735 86.0128 72.1407L87.8393 71.99V111.691L85.9245 111.544C81.9852 111.242 47.6823 109.469 47.6123 109.559C47.527 109.677 48.1389 119.878 48.6321 126.615C50.1208 146.787 52.2335 165.236 54.5441 178.207C54.9551 180.512 55.2565 182.439 55.2108 182.489C55.1682 182.536 43.5025 183.369 29.2888 184.331C15.072 185.296 2.65138 186.147 1.68331 186.229C0.0119987 186.369 -0.0701969 186.351 0.0272199 185.913Z" fill="#F9F0DC"/>
<path d="M232.926 184.442C229.663 168.642 227.639 151.661 226.537 130.797C224.926 100.299 225.654 61.4627 228.578 22.0202C229.049 15.6923 230.081 3.57491 230.367 1.06242L230.487 0L229.654 0.150749C228.215 0.412766 224.563 0.771693 220.075 1.09114C216.994 1.31008 209.114 1.39623 192.731 1.39264C170.612 1.38546 163.177 1.24548 140.956 0.419945C140.798 0.412766 140.643 0.409177 140.488 0.401998C141.956 4.23534 142.789 8.59271 142.789 13.2157C142.789 24.0302 138.237 33.4017 131.599 37.9817C131.526 40.487 131.439 43.0138 131.33 45.5227C131.181 48.9828 131.047 52.188 131.029 52.651L131 53.4945L131.933 53.4335C151.365 52.1198 173.089 51.2117 185.138 51.2081L189.348 51.2045L189.255 56.933C188.977 73.5154 188.965 73.8779 188.732 73.8779C188.085 73.8779 152.476 71.6992 150.996 71.57L149.257 71.4193V110.804L151.081 110.661C154.832 110.363 187.518 108.601 187.585 108.69C187.667 108.809 187.083 118.927 186.612 125.61C185.194 145.627 183.182 163.926 180.98 176.797C180.589 179.083 180.302 180.993 180.346 181.043C180.387 181.093 191.5 181.919 205.044 182.873C218.59 183.828 230.426 184.675 231.347 184.754C232.94 184.894 233.019 184.876 232.926 184.442Z" fill="#F9F0DC"/>
<path d="M120.94 106.992C110.938 107.277 102.036 99.8653 103.084 89.94C103.292 86.7382 104.443 83.8564 106.458 81.2944C106.607 81.1035 106.756 80.9073 106.935 80.7406C107.298 80.3992 107.843 80.3669 108.207 80.6438C108.573 80.9261 108.635 81.41 108.343 81.8482C104.048 87.0689 103.606 94.5102 107.869 99.6933C112.187 104.976 120.103 106.35 126.565 104.374C135.47 101.58 137.643 90.2277 132.002 83.6117C127.457 77.9985 119 77.063 113.605 82.16C105.786 88.5152 108.745 100.599 119.509 101.261C124.553 101.793 129.66 99.532 130.578 94.3946C132.394 86.991 124.135 78.1894 116.116 85.2946C111.846 89.1174 112.91 96.1608 119.048 97.3544C124.66 98.6475 128.748 93.5908 125.54 88.6631C123.077 84.9801 117.773 86.9668 117.88 91.0933C117.955 92.2708 118.896 93.3945 120.025 93.658C121.54 94.0747 122.798 92.7547 122.198 91.3595C122.062 91.0181 121.812 90.7089 121.569 90.4213C121.18 89.9696 121.137 89.5556 121.501 89.1873C121.841 88.8432 122.464 88.8029 122.876 89.1013C124.041 89.94 124.579 92.0826 123.976 93.4886C121.721 97.8598 114.753 94.5182 116.044 89.6631C116.709 86.8969 119.48 84.7596 122.305 84.8941C127.892 85.2167 130.247 92.545 127.145 96.4753C125.812 98.255 123.914 99.0991 121.686 99.2524C118.815 99.4513 116.174 98.8115 114.107 96.7926C108.664 91.8057 112.69 83.0472 119.33 81.3347C123.181 80.1787 126.516 81.3294 129.277 83.9989C134.334 88.8755 133.887 98.3572 127.223 101.72C125.559 102.629 123.729 103 121.825 103.059C113.994 103.648 106.724 98.376 107.311 90.4804C107.554 85.2086 110.604 81.5122 115.126 78.883C120.297 75.8774 126.451 76.5361 131.311 80.3858C137.063 84.9613 138.714 93.5343 135.061 99.7685C132.086 104.911 126.886 106.965 120.94 106.992Z" fill="#F9F0DC"/>
</svg>
