<svg width="233" height="187" viewBox="0 0 233 187" fill="none" xmlns="http://www.w3.org/2000/svg">
<path d="M107.97 181.114C107.97 181.114 103.538 146.957 107.97 140.124C112.404 133.292 130.136 133.292 134.571 140.124C139.005 146.957 134.571 181.114 134.571 181.114H107.97Z" fill="#F9F0DC"/>
<path d="M0.0272199 185.913C3.45203 169.988 5.57693 152.871 6.73376 131.841C8.42333 101.099 7.65922 61.9544 4.59059 22.196C4.09742 15.8179 3.01061 3.60363 2.71227 1.0696L2.58746 0L3.46116 0.154339C4.97112 0.416355 8.80386 0.778872 13.5134 1.09832C16.7494 1.32085 25.0177 1.40699 42.2117 1.4034C65.4243 1.39623 73.2299 1.25624 96.549 0.423534C96.7134 0.416355 96.8778 0.412766 97.0422 0.405588C95.4987 4.26764 94.6281 8.66091 94.6281 13.3198C94.6281 24.224 99.4015 33.6709 106.37 38.2832C106.446 40.81 106.537 43.3548 106.653 45.8888C106.808 49.3704 106.948 52.6043 106.967 53.0709L107 53.9216L106.02 53.8606C85.6261 52.5361 62.8245 51.6209 50.1786 51.6173L45.7614 51.6137L45.8618 57.3888C46.151 74.1005 46.1632 74.4666 46.4067 74.4666C47.0856 74.4666 84.4602 72.2735 86.0128 72.1407L87.8393 71.99V111.691L85.9245 111.544C81.9852 111.242 47.6823 109.469 47.6123 109.559C47.527 109.677 48.1389 119.878 48.6321 126.615C50.1208 146.787 52.2335 165.236 54.5441 178.207C54.9551 180.512 55.2565 182.439 55.2108 182.489C55.1682 182.536 43.5025 183.369 29.2888 184.331C15.072 185.296 2.65138 186.147 1.68331 186.229C0.0119987 186.369 -0.0701969 186.351 0.0272199 185.913Z" fill="#F9F0DC"/>
<path d="M232.926 184.442C229.663 168.642 227.639 151.661 226.537 130.797C224.926 100.299 225.654 61.4627 228.578 22.0202C229.049 15.6923 230.081 3.57491 230.367 1.06242L230.487 0L229.654 0.150749C228.215 0.412766 224.563 0.771693 220.075 1.09114C216.994 1.31008 209.114 1.39623 192.731 1.39264C170.612 1.38546 163.177 1.24548 140.956 0.419945C140.798 0.412766 140.643 0.409177 140.488 0.401998C141.956 4.23534 142.789 8.59271 142.789 13.2157C142.789 24.0302 138.237 33.4017 131.599 37.9817C131.526 40.487 131.439 43.0138 131.33 45.5227C131.181 48.9828 131.047 52.188 131.029 52.651L131 53.4945L131.933 53.4335C151.365 52.1198 173.089 51.2117 185.138 51.2081L189.348 51.2045L189.255 56.933C188.977 73.5154 188.965 73.8779 188.732 73.8779C188.085 73.8779 152.476 71.6992 150.996 71.57L149.257 71.4193V110.804L151.081 110.661C154.832 110.363 187.518 108.601 187.585 108.69C187.667 108.809 187.083 118.927 186.612 125.61C185.194 145.627 183.182 163.926 180.98 176.797C180.589 179.083 180.302 180.993 180.346 181.043C180.387 181.093 191.5 181.919 205.044 182.873C218.59 183.828 230.426 184.675 231.347 184.754C232.94 184.894 233.019 184.876 232.926 184.442Z" fill="#F9F0DC"/>
<path fill-rule="evenodd" clip-rule="evenodd" d="M102.675 96.3024L100.408 104.762L98.9147 104.362C98.5187 104.256 98.0968 104.311 97.7418 104.516C97.3867 104.721 97.1276 105.059 97.0215 105.455C96.9153 105.851 96.9708 106.272 97.1757 106.627C97.3806 106.982 97.7182 107.242 98.1141 107.348L104.086 108.947C104.482 109.053 104.904 108.998 105.259 108.793C105.614 108.588 105.873 108.251 105.979 107.855C106.085 107.459 106.03 107.037 105.825 106.682C105.62 106.327 105.282 106.068 104.886 105.961L103.393 105.561L105.659 97.103L117.411 87.8782C117.637 87.7011 117.809 87.4646 117.908 87.1951C118.007 86.9256 118.029 86.6339 117.971 86.3526C117.914 86.0713 117.779 85.8115 117.583 85.6025C117.386 85.3934 117.135 85.2434 116.857 85.169L98.944 80.3704C98.6668 80.2962 98.3745 80.3005 98.0997 80.3831C97.8248 80.4656 97.5784 80.623 97.388 80.8376C97.1976 81.0523 97.0707 81.3157 97.0215 81.5984C96.9723 81.8811 97.0028 82.1719 97.1096 82.4382L102.675 96.3024ZM134.341 97.103L136.607 105.561L135.114 105.961C134.718 106.068 134.38 106.327 134.175 106.682C133.97 107.037 133.915 107.459 134.021 107.855C134.127 108.251 134.386 108.588 134.741 108.793C135.096 108.998 135.518 109.053 135.914 108.947L141.886 107.348C142.282 107.242 142.619 106.982 142.824 106.627C143.029 106.272 143.085 105.851 142.978 105.455C142.872 105.059 142.613 104.721 142.258 104.516C141.903 104.311 141.481 104.256 141.085 104.362L139.592 104.762L137.327 96.3024L142.89 82.4382C142.998 82.172 143.028 81.8812 142.98 81.5984C142.931 81.3156 142.804 81.0521 142.614 80.8373C142.423 80.6225 142.177 80.4651 141.902 80.3826C141.627 80.3001 141.335 80.2959 141.057 80.3704L123.143 85.169C122.866 85.2438 122.615 85.3942 122.419 85.6033C122.222 85.8123 122.088 86.0719 122.03 86.353C121.973 86.634 121.995 86.9255 122.094 87.1949C122.192 87.4642 122.364 87.7008 122.589 87.8782L134.341 97.103ZM136.265 90.6476L132.366 91.6228L135.033 93.7169L136.265 90.6476ZM104.967 93.7169L107.561 91.68L103.769 90.7311L104.967 93.7169ZM102.347 87.1905L101.129 84.1552L113.071 87.3558L110.64 89.2629L102.347 87.1905ZM137.687 87.107L129.287 89.2057L126.929 87.3558L138.871 84.1552L137.687 87.107ZM121.395 79.6363V76.5454C121.395 76.1356 121.232 75.7425 120.942 75.4527C120.652 75.1628 120.259 75 119.849 75C119.439 75 119.046 75.1628 118.756 75.4527C118.467 75.7425 118.304 76.1356 118.304 76.5454V79.6363C118.304 80.0462 118.467 80.4393 118.756 80.7291C119.046 81.019 119.439 81.1818 119.849 81.1818C120.259 81.1818 120.652 81.019 120.942 80.7291C121.232 80.4393 121.395 80.0462 121.395 79.6363ZM125.969 79.8233L128.154 77.6381C128.436 77.3466 128.592 76.9562 128.588 76.551C128.585 76.1458 128.422 75.7582 128.136 75.4716C127.849 75.1851 127.462 75.0226 127.056 75.019C126.651 75.0155 126.261 75.1713 125.969 75.4528L123.782 77.6381C123.493 77.9281 123.33 78.3213 123.33 78.7313C123.33 79.1412 123.493 79.5343 123.783 79.8241C124.073 80.1139 124.466 80.2766 124.876 80.2765C125.286 80.2763 125.679 80.1133 125.969 79.8233ZM115.916 77.6381L113.729 75.4528C113.438 75.1713 113.047 75.0155 112.642 75.019C112.237 75.0226 111.849 75.1851 111.563 75.4716C111.276 75.7582 111.114 76.1458 111.11 76.551C111.107 76.9562 111.263 77.3466 111.544 77.6381L113.729 79.8233C113.873 79.9669 114.043 80.0808 114.231 80.1586C114.418 80.2363 114.619 80.2764 114.822 80.2765C115.025 80.2765 115.226 80.2366 115.414 80.159C115.601 80.0814 115.772 79.9676 115.915 79.8241C116.059 79.6806 116.173 79.5103 116.251 79.3227C116.328 79.1352 116.368 78.9342 116.368 78.7313C116.369 78.5283 116.329 78.3272 116.251 78.1397C116.173 77.9521 116.06 77.7817 115.916 77.6381Z" fill="#F9F0DC"/>
</svg>
