<svg xmlns="http://www.w3.org/2000/svg" xmlns:xlink="http://www.w3.org/1999/xlink" width="569px" height="540px" viewBox="0 0 568.6432596000086 539.9998794000003">
    
        <g id="381f6735-df8a-45e4-8c23-31292c9806c2" name="New Group">
          <g id="30f2b81d-1d5f-4b7b-bd3b-bc9d90c11207">
<g style="">
		<g id="30f2b81d-1d5f-4b7b-bd3b-bc9d90c11207-child-0">
<path style="stroke: none; stroke-width: 0; stroke-dasharray: none; stroke-linecap: butt; stroke-dashoffset: 0; stroke-linejoin: miter; stroke-miterlimit: 4; fill: rgb(250,242,224); fill-opacity: 1.00; fill-rule: nonzero; opacity: 1;" d="M0,539.99988v-539.99988h568.64326v539.99988z" stroke-linecap="round"></path>
</g>
</g>
</g>

<g id="0aca43b2-04c2-4f2c-a47a-8740d7401d09">
<g style="">
		<g id="0aca43b2-04c2-4f2c-a47a-8740d7401d09-child-0">
<path style="stroke: rgb(193,193,193); stroke-opacity: 1.00; stroke-width: 0; stroke-dasharray: none; stroke-linecap: butt; stroke-dashoffset: 0; stroke-linejoin: miter; stroke-miterlimit: 4; fill: rgb(29,29,29); fill-opacity: 1.00; fill-rule: nonzero; opacity: 1;" transform="matrix(2.881027 0 0 2.881027 284.321642 276.146665) matrix(1 0 0 1 0 0)  translate(-56, -56.5)" d="M 0.00 0.00 L 112.00 0.00 L 112.00 113.00 L 0.00 113.00 Z M 14.41 93.70 L 13.79 96.78 L 18.15 96.41 C 20.54 96.21 25.99 95.77 30.25 95.43 C 34.43 95.11 36.57 95.02 37.48 93.92 C 38.42 92.78 38.04 90.56 37.24 85.89 C 37.19 85.58 37.14 85.26 37.08 84.93 C 36.57 81.95 35.93 75.98 35.65 71.68 L 35.14 63.86 L 53.00 65.26 L 53.00 47.70 L 44.00 48.29 C 36.02 48.80 34.99 48.68 34.89 47.19 C 34.82 46.26 34.63 44.26 34.45 42.75 L 34.12 40.00 L 61.00 40.00 L 61.00 17.50 L 14.84 17.50 L 15.38 21.00 C 15.68 22.92 16.24 35.08 16.61 48.00 C 17.23 69.68 16.61 82.71 14.41 93.70 Z M 51.00 72.95 L 51.00 96.00 L 97.14 96.00 L 96.34 87.75 C 95.04 74.24 95.61 37.60 97.27 27.50 C 98.09 22.55 98.47 18.25 98.13 17.94 C 97.33 17.24 76.34 18.32 75.56 19.11 C 75.23 19.43 75.59 26.18 76.34 34.10 C 77.09 42.02 77.54 48.81 77.33 49.20 C 77.12 49.58 73.13 49.63 68.47 49.30 L 60.00 48.70 L 60.00 65.87 L 78.00 64.70 L 78.00 74.30 Z" stroke-linecap="round"></path>
</g>
		<g id="0aca43b2-04c2-4f2c-a47a-8740d7401d09-child-1">
<path style="stroke: rgb(193,193,193); stroke-opacity: 1.00; stroke-width: 0; stroke-dasharray: none; stroke-linecap: butt; stroke-dashoffset: 0; stroke-linejoin: miter; stroke-miterlimit: 4; fill: rgb(250,242,224); fill-opacity: 1.00; fill-rule: nonzero; opacity: 1;" transform="matrix(2.881027 0 0 2.881027 284.321642 276.146665) matrix(1 0 0 1 0.022191 0.64)  translate(-56.022191, -57.14)" d="M 14.41 93.70 C 16.61 82.71 17.23 69.68 16.61 48.00 C 16.24 35.08 15.68 22.92 15.38 21.00 L 14.84 17.50 L 37.92 17.50 L 61.00 17.50 L 61.00 28.75 L 61.00 40.00 L 47.56 40.00 L 34.12 40.00 L 34.45 42.75 C 34.63 44.26 34.82 46.26 34.89 47.19 C 34.99 48.68 36.02 48.80 44.00 48.29 L 53.00 47.70 L 53.00 56.48 L 53.00 65.26 L 44.07 64.56 L 35.14 63.86 L 35.65 71.68 C 35.93 75.98 36.57 81.95 37.08 84.93 C 38.80 95.11 39.04 94.75 30.25 95.43 C 25.99 95.77 20.54 96.21 18.15 96.41 L 13.79 96.78 L 14.41 93.70 Z M 51.00 84.47 L 51.00 72.95 L 64.50 73.63 L 78.00 74.30 L 78.00 69.50 L 78.00 64.70 L 69.00 65.29 L 60.00 65.87 L 60.00 57.29 L 60.00 48.70 L 68.47 49.30 C 73.13 49.63 77.12 49.58 77.33 49.20 C 77.54 48.81 77.09 42.02 76.34 34.10 C 75.59 26.18 75.23 19.43 75.56 19.11 C 76.34 18.32 97.33 17.24 98.13 17.94 C 98.47 18.25 98.09 22.55 97.27 27.50 C 95.61 37.60 95.04 74.24 96.34 87.75 L 97.14 96.00 L 74.07 96.00 L 51.00 96.00 L 51.00 84.47 Z" stroke-linecap="round"></path>
</g>
</g>
</g>

        </g>
      
  </svg>